<?xml version="1.0" encoding="utf-8"?>
<!-- Generator: Adobe Illustrator 16.0.0, SVG Export Plug-In . SVG Version: 6.00 Build 0)  -->
<!DOCTYPE svg PUBLIC "-//W3C//DTD SVG 1.1//EN" "http://www.w3.org/Graphics/SVG/1.1/DTD/svg11.dtd">
<svg version="1.1" id="Layer_1" xmlns="http://www.w3.org/2000/svg" xmlns:xlink="http://www.w3.org/1999/xlink" x="0px" y="0px"
	 width="100px" height="100px" viewBox="0 0 100 100" enable-background="new 0 0 100 100" xml:space="preserve">
<g>
	<path fill-rule="evenodd" clip-rule="evenodd" fill="#231F20" d="M56.106,1.139c0,12.239,0,24.281,0,36.458
		c4.07-4.105,8.049-8.117,12.203-12.308c4.222,4.243,8.159,8.2,12.224,12.281c0-12.176,0-24.201,0-36.55
		c2.744,0.139,5.421,0.041,8.004,0.475c2.426,0.409,4.105,2.852,4.26,5.366c0.021,0.361,0.007,0.725,0.007,1.086
		c0,21.604,0,43.21,0,64.814c0,0.535,0,1.068,0,1.758c-0.635,0-1.166,0-1.693,0c-21.787,0-43.572-0.004-65.358,0.002
		c-2.954,0-5.288,1.684-6.06,4.317c-0.777,2.649,0.137,5.522,2.512,6.852c1.161,0.652,2.644,1.012,3.982,1.015
		c21.605,0.062,43.21,0.044,64.816,0.044c0.538,0,1.075,0,1.706,0c0,4.078,0,8.078,0,12.23c-0.5,0-0.979,0-1.464,0
		c-21.696,0-43.393,0.003-65.088,0C15.112,98.976,7.193,91.021,7.192,79.94c0-22.057,0-44.114,0-66.173
		c0-6.904,5.72-12.623,12.639-12.627c11.595-0.005,23.191-0.001,34.787-0.001C55.062,1.139,55.507,1.139,56.106,1.139z"/>
</g>
</svg>
