<?xml version="1.0" encoding="utf-8"?>
<!-- Generator: Adobe Illustrator 16.0.0, SVG Export Plug-In . SVG Version: 6.00 Build 0)  -->
<!DOCTYPE svg PUBLIC "-//W3C//DTD SVG 1.1//EN" "http://www.w3.org/Graphics/SVG/1.1/DTD/svg11.dtd">
<svg version="1.1" id="Layer_1" xmlns="http://www.w3.org/2000/svg" xmlns:xlink="http://www.w3.org/1999/xlink" x="0px" y="0px"
	 width="100px" height="100px" viewBox="0 0 100 100" enable-background="new 0 0 100 100" xml:space="preserve">
<circle fill-rule="evenodd" clip-rule="evenodd" fill="#DB5B3A" cx="50" cy="50" r="50"/>
<g>
	<path fill-rule="evenodd" clip-rule="evenodd" fill="#FFFFFF" d="M53.551,21.589c0,7.117,0,14.119,0,21.199
		c2.367-2.387,4.68-4.72,7.096-7.156c2.455,2.467,4.744,4.768,7.107,7.141c0-7.08,0-14.072,0-21.252
		c1.596,0.081,3.152,0.024,4.654,0.276c1.41,0.237,2.387,1.658,2.477,3.12c0.012,0.21,0.004,0.421,0.004,0.632
		c0,12.562,0,25.125,0,37.687c0,0.311,0,0.621,0,1.021c-0.369,0-0.678,0-0.984,0c-12.668,0-25.335-0.002-38.003,0.002
		c-1.718,0-3.075,0.979-3.523,2.51c-0.452,1.541,0.08,3.211,1.461,3.984c0.675,0.379,1.537,0.588,2.315,0.59
		c12.562,0.035,25.125,0.025,37.688,0.025c0.312,0,0.625,0,0.992,0c0,2.371,0,4.697,0,7.111c-0.291,0-0.57,0-0.852,0
		c-12.615,0-25.231,0.002-37.846,0c-6.422-0.002-11.026-4.627-11.027-11.07c0-12.825,0-25.65,0-38.477
		c0-4.015,3.326-7.34,7.349-7.342c6.742-0.003,13.484-0.001,20.227-0.001C52.943,21.589,53.202,21.589,53.551,21.589z"/>
</g>
</svg>
